<?xml version="1.0" standalone="no"?>
<!DOCTYPE svg PUBLIC "-//W3C//DTD SVG 20010904//EN"
 "http://www.w3.org/TR/2001/REC-SVG-20010904/DTD/svg10.dtd">
<svg version="1.0" xmlns="http://www.w3.org/2000/svg"
 width="500.000000pt" height="500.000000pt" viewBox="0 0 500.000000 500.000000"
 preserveAspectRatio="xMidYMid meet">
<metadata>
Created by potrace 1.14, written by Peter Selinger 2001-2017
</metadata>
<g transform="translate(0.000000,500.000000) scale(0.100000,-0.100000)"
fill="#000000" stroke="none">
<path d="M0 2500 l0 -2500 2500 0 2500 0 0 2500 0 2500 -2500 0 -2500 0 0
-2500z m2101 698 c-11 -18 -58 -92 -103 -165 l-83 -132 -697 -1 -698 0 0 -295
0 -295 303 0 302 0 38 60 c20 33 37 62 37 65 0 3 -121 5 -270 5 l-270 0 0 165
0 165 585 0 584 0 -146 -227 c-80 -126 -193 -303 -252 -395 l-106 -168 -587 0
-588 0 0 625 0 625 986 0 986 0 -21 -32z m1029 -620 c228 -358 436 -685 463
-725 26 -40 47 -75 47 -78 0 -3 -92 -5 -204 -5 l-203 0 -44 70 c-24 38 -78
124 -119 190 l-75 119 -397 3 -397 3 106 168 107 167 178 0 c98 0 178 2 178 5
0 2 -59 97 -131 210 l-131 205 -28 -43 c-44 -67 -284 -443 -430 -674 l-135
-212 -207 -1 -207 0 66 103 c36 56 80 125 98 152 81 127 132 206 275 430 84
132 200 313 258 403 l104 162 206 0 207 0 415 -652z m1720 372 l0 -280 -180 0
-180 0 0 115 0 115 -490 0 c-269 0 -490 -2 -490 -5 0 -3 24 -42 53 -88 30 -45
113 -175 186 -289 l133 -208 304 0 304 0 0 115 0 115 180 0 180 0 0 -280 0
-280 -584 0 -584 0 -171 268 c-94 147 -215 337 -270 422 -207 322 -346 542
-349 551 -2 5 404 9 977 9 l981 0 0 -280z"/>
</g>
</svg>
