<svg width="40" height="40" viewBox="0 0 40 40" fill="none" xmlns="http://www.w3.org/2000/svg">
<path d="M24 13C24 10.7909 22.2091 9.00003 20 9.00003C17.7909 9.00003 16 10.7909 16 13V18H14V13C14 9.68632 16.6863 7.00003 20 7.00003C23.3137 7.00003 26 9.68632 26 13V18H24V13Z" fill="white"/>
<path fill-rule="evenodd" clip-rule="evenodd" d="M22.2322 20H9.33333C8.59733 20 8 19.4026 8 18.6666V16C8 15.264 8.59733 14.6666 9.33333 14.6666H30.6667C31.4027 14.6666 32 15.264 32 16V18.6666C32 19.4026 31.4027 20 30.6667 20H24.1605C24.1365 19.9711 24.1109 19.9432 24.0839 19.9161C23.5957 19.4279 22.8043 19.4279 22.3161 19.9161L22.2322 20ZM22.2322 20H9.65601L11.9053 30.3853C12.1053 31.3053 12.9187 31.9613 13.86 31.9613H26.14C27.0813 31.9613 27.896 31.3053 28.0947 30.3853L30.344 20H24.1606C24.5705 20.4911 24.545 21.2228 24.0839 21.6839L19.6839 26.0839C19.1957 26.572 18.4043 26.572 17.9161 26.0839L15.9161 24.0839C15.4279 23.5957 15.4279 22.8043 15.9161 22.3161C16.4043 21.8279 17.1957 21.8279 17.6839 22.3161L18.8 23.4322L22.2322 20Z" fill="white"/>
</svg>
