<svg width="20" height="14" viewBox="0 0 20 14" fill="none" xmlns="http://www.w3.org/2000/svg">
<path fill-rule="evenodd" clip-rule="evenodd" d="M13.6301 12.65C14.1438 13.2833 14.7603 14 14.7603 14C18.5445 13.8833 20 11.4667 20 11.4667C20 6.10008 17.5342 1.75012 17.5342 1.75012C15.0685 -0.0498614 12.7226 0.000138505 12.7226 0.000138505L12.4829 0.266803C15.3938 1.13346 16.7466 2.38345 16.7466 2.38345C14.9658 1.43346 13.2192 0.966797 11.5925 0.783465C10.3596 0.650133 9.17808 0.683465 8.13356 0.816798C8.04387 0.816798 7.96722 0.829499 7.88084 0.843816L7.84247 0.85013C7.24315 0.90013 5.78767 1.11679 3.95548 1.90012C3.32192 2.18345 2.94521 2.38345 2.94521 2.38345C2.94521 2.38345 4.36644 1.06679 7.44863 0.200138L7.2774 0.000138505C7.2774 0.000138505 4.93151 -0.0498614 2.46575 1.75012C2.46575 1.75012 0 6.10008 0 11.4667C0 11.4667 1.43836 13.8833 5.2226 14C5.2226 14 5.85617 13.25 6.36986 12.6167C4.19521 11.9834 3.37329 10.65 3.37329 10.65C3.37329 10.65 3.54452 10.7667 3.85274 10.9334C3.86986 10.95 3.88699 10.9667 3.92123 10.9834C3.94692 11 3.97261 11.0125 3.9983 11.025C4.02398 11.0375 4.04966 11.05 4.07534 11.0667C4.50342 11.3 4.93151 11.4834 5.32534 11.6334C6.0274 11.9 6.86644 12.1667 7.84247 12.35C9.12671 12.5833 10.6336 12.6667 12.2774 12.3667C13.0822 12.2334 13.9041 12 14.7603 11.65C15.3596 11.4334 16.0274 11.1167 16.7295 10.6667C16.7295 10.6667 15.8733 12.0334 13.6301 12.65ZM5.05137 8.06673C5.05137 7.05007 5.82192 6.21674 6.79795 6.21674C7.77398 6.21674 8.56165 7.05007 8.54452 8.06673C8.54452 9.08338 7.77398 9.91671 6.79795 9.91671C5.83904 9.91671 5.05137 9.08338 5.05137 8.06673ZM11.3014 8.06673C11.3014 7.05007 12.0719 6.21674 13.0479 6.21674C14.024 6.21674 14.7945 7.05007 14.7945 8.06673C14.7945 9.08338 14.024 9.91671 13.0479 9.91671C12.089 9.91671 11.3014 9.08338 11.3014 8.06673Z" fill="#5865F2"/>
</svg>
