<svg width="16" height="15" viewBox="0 0 16 15" fill="none" xmlns="http://www.w3.org/2000/svg">
<path fill-rule="evenodd" clip-rule="evenodd" d="M11 7C11 6.58579 11.3358 6.25 11.75 6.25H14.15C15.0058 6.25 15.7 6.94419 15.7 7.8V12.6C15.7 13.8982 14.6482 14.95 13.35 14.95C12.0518 14.95 11 13.8982 11 12.6V7ZM12.5 7.75V12.6C12.5 13.0698 12.8802 13.45 13.35 13.45C13.8198 13.45 14.2 13.0698 14.2 12.6V7.8C14.2 7.77261 14.1774 7.75 14.15 7.75H12.5Z" fill="white"/>
<path fill-rule="evenodd" clip-rule="evenodd" d="M12.6 0.8V7L12.602 14.8H1.80001C0.916012 14.8 0.200012 14.084 0.200012 13.2V0.8C0.200012 0.3584 0.558412 0 1.00001 0H11.8C12.2416 0 12.6 0.3584 12.6 0.8ZM3.20001 2.64999C2.7858 2.64999 2.45001 2.98578 2.45001 3.39999C2.45001 3.81421 2.7858 4.14999 3.20001 4.14999H9.80001C10.2142 4.14999 10.55 3.81421 10.55 3.39999C10.55 2.98578 10.2142 2.64999 9.80001 2.64999H3.20001ZM3.20001 5.53089C2.7858 5.53089 2.45001 5.86667 2.45001 6.28089C2.45001 6.6951 2.7858 7.03089 3.20001 7.03089H9.80001C10.2142 7.03089 10.55 6.6951 10.55 6.28089C10.55 5.86667 10.2142 5.53089 9.80001 5.53089H3.20001ZM3.20001 8.64999C2.7858 8.64999 2.45001 8.98578 2.45001 9.39999C2.45001 9.81421 2.7858 10.15 3.20001 10.15H6.50001C6.91423 10.15 7.25001 9.81421 7.25001 9.39999C7.25001 8.98578 6.91423 8.64999 6.50001 8.64999H3.20001Z" fill="white"/>
</svg>
