<svg width="88" height="20" viewBox="0 0 88 20" fill="none" xmlns="http://www.w3.org/2000/svg">
<path d="M20.1373 10C20.1373 15.5225 15.6291 20 10.0686 20C4.5082 20 0 15.5225 0 10C0 4.47746 4.5082 0 10.0686 0C15.6303 0 20.1373 4.47746 20.1373 10Z" fill="#2081E2"/>
<path d="M4.96745 10.336L5.01089 10.2682L7.63014 6.19863C7.66843 6.13905 7.75842 6.14521 7.78738 6.20993C8.22496 7.18391 8.60253 8.39523 8.42565 9.14935C8.35013 9.45963 8.14324 9.87983 7.91048 10.2682C7.88049 10.3247 7.84739 10.3802 7.81221 10.4336C7.79565 10.4583 7.76772 10.4727 7.73772 10.4727H5.04399C4.97158 10.4727 4.92917 10.3946 4.96745 10.336Z" fill="white"/>
<path d="M16.6423 11.0922V11.7364C16.6423 11.7734 16.6196 11.8062 16.5865 11.8206C16.3837 11.9069 15.6896 12.2234 15.401 12.622C14.6645 13.6402 14.1017 15.096 12.8438 15.096H7.59598C5.73604 15.096 4.22882 13.5939 4.22882 11.7405V11.6809C4.22882 11.6316 4.26916 11.5915 4.31881 11.5915H7.24428C7.3022 11.5915 7.3446 11.6449 7.33945 11.7014C7.31875 11.8905 7.35393 12.0836 7.44392 12.2593C7.61771 12.6097 7.9777 12.8285 8.36665 12.8285H9.81491V11.7056H8.38321C8.30976 11.7056 8.26633 11.6213 8.30874 11.5617C8.32424 11.5381 8.34184 11.5134 8.36045 11.4857C8.49597 11.2946 8.68941 10.9977 8.88183 10.6597C9.0132 10.4316 9.14043 10.1881 9.24285 9.94356C9.26355 9.89938 9.28008 9.85416 9.29663 9.80998C9.32456 9.7319 9.35354 9.65896 9.37422 9.58602C9.39492 9.52436 9.41146 9.45964 9.42801 9.39902C9.47664 9.19148 9.49732 8.97162 9.49732 8.74354C9.49732 8.65416 9.49319 8.56066 9.48492 8.47128C9.48077 8.37368 9.46836 8.27606 9.45594 8.17846C9.44766 8.09216 9.43216 8.00688 9.4156 7.9175C9.39492 7.78702 9.36595 7.65758 9.33284 7.52708L9.32146 7.47778C9.29663 7.38838 9.27595 7.30312 9.24699 7.21374C9.16526 6.93324 9.07114 6.65996 8.97182 6.40414C8.93561 6.30242 8.89423 6.20482 8.85285 6.10722C8.79183 5.9603 8.72975 5.82674 8.67286 5.70036C8.6439 5.64282 8.61907 5.59042 8.59424 5.537C8.56631 5.47638 8.53736 5.41576 8.50838 5.35824C8.4877 5.31406 8.4639 5.27296 8.44734 5.23186L8.27046 4.9072C8.24563 4.86302 8.28701 4.81062 8.33562 4.82398L9.44251 5.12192H9.44561C9.44766 5.12192 9.44871 5.12296 9.44974 5.12296L9.59559 5.16302L9.75595 5.20824L9.81491 5.22466V4.57124C9.81491 4.25582 10.0694 4 10.3839 4C10.5411 4 10.6839 4.0637 10.7863 4.16746C10.8887 4.27124 10.9528 4.41302 10.9528 4.57124V5.54112L11.0707 5.57398C11.0801 5.57708 11.0894 5.58118 11.0976 5.58734C11.1266 5.60892 11.168 5.64076 11.2207 5.67982C11.2621 5.71268 11.3066 5.75276 11.3604 5.79386C11.4669 5.87912 11.5942 5.98906 11.7338 6.11544C11.7711 6.14728 11.8073 6.18016 11.8404 6.21304C12.0204 6.37948 12.2221 6.57468 12.4145 6.79044C12.4683 6.85106 12.5211 6.9127 12.5748 6.97742C12.6286 7.04318 12.6855 7.1079 12.7352 7.17264C12.8004 7.25894 12.8707 7.34832 12.9317 7.44182C12.9607 7.486 12.9938 7.5312 13.0217 7.57538C13.1003 7.69352 13.1697 7.8158 13.2359 7.93806C13.2638 7.99456 13.2928 8.0562 13.3176 8.11682C13.391 8.28018 13.449 8.44662 13.4862 8.61306C13.4976 8.64902 13.5059 8.68806 13.51 8.723V8.73122C13.5224 8.78052 13.5266 8.83292 13.5307 8.88634C13.5472 9.0569 13.539 9.22744 13.5017 9.39902C13.4862 9.47198 13.4655 9.5408 13.4407 9.61376C13.4159 9.68362 13.391 9.75656 13.359 9.8254C13.2969 9.9682 13.2234 10.111 13.1366 10.2446C13.1086 10.2939 13.0755 10.3463 13.0424 10.3956C13.0062 10.448 12.969 10.4973 12.9359 10.5456C12.8904 10.6073 12.8417 10.672 12.7921 10.7295C12.7476 10.7901 12.7021 10.8508 12.6524 10.9042C12.5831 10.9853 12.5169 11.0624 12.4476 11.1364C12.4062 11.1847 12.3618 11.234 12.3162 11.2782C12.2718 11.3275 12.2262 11.3716 12.1848 11.4127C12.1156 11.4816 12.0576 11.535 12.009 11.5792L11.8952 11.683C11.8787 11.6973 11.8569 11.7056 11.8342 11.7056H10.9528V12.8285H12.0617C12.31 12.8285 12.5459 12.7412 12.7362 12.5809C12.8014 12.5244 13.0859 12.2799 13.4221 11.911C13.4334 11.8987 13.4479 11.8895 13.4645 11.8854L16.5275 11.0059C16.5844 10.9895 16.6423 11.0326 16.6423 11.0922Z" fill="white"/>
<path d="M29.9488 14.7993C29.0386 14.7993 28.2019 14.5967 27.4389 14.1916C26.685 13.7864 26.0827 13.2227 25.6322 12.5005C25.191 11.7694 24.9703 10.9503 24.9703 10.0431C24.9703 9.13584 25.191 8.3211 25.6322 7.59886C26.0827 6.87662 26.685 6.3129 27.4389 5.90774C28.2019 5.50258 29.0386 5.3 29.9488 5.3C30.859 5.3 31.6911 5.50258 32.445 5.90774C33.2082 6.3129 33.8057 6.87662 34.2379 7.59886C34.6793 8.3211 34.8998 9.13584 34.8998 10.0431C34.8998 10.9503 34.6793 11.7694 34.2379 12.5005C33.7967 13.2227 33.199 13.7864 32.445 14.1916C31.6911 14.5967 30.859 14.7993 29.9488 14.7993ZM29.9488 12.7383C30.7211 12.7383 31.3371 12.4916 31.7968 11.9984C32.2658 11.5052 32.5002 10.8534 32.5002 10.0431C32.5002 9.22392 32.2658 8.57214 31.7968 8.0877C31.3371 7.59446 30.7211 7.34784 29.9488 7.34784C29.1673 7.34784 28.5422 7.59006 28.0732 8.07448C27.6135 8.55892 27.3837 9.2151 27.3837 10.0431C27.3837 10.8622 27.6135 11.5184 28.0732 12.0116C28.5422 12.4961 29.1673 12.7383 29.9488 12.7383Z" fill="white"/>
<path d="M38.5702 8.37835C38.8 8.03485 39.1171 7.75739 39.5217 7.54601C39.9262 7.33461 40.3997 7.22891 40.9422 7.22891C41.5765 7.22891 42.1512 7.38305 42.6661 7.69133C43.1808 7.99961 43.5854 8.44001 43.8796 9.01251C44.1831 9.58503 44.3347 10.25 44.3347 11.0075C44.3347 11.765 44.1831 12.4344 43.8796 13.0157C43.5854 13.5882 43.1808 14.033 42.6661 14.3501C42.1512 14.6584 41.5765 14.8125 40.9422 14.8125C40.4089 14.8125 39.9355 14.7068 39.5217 14.4954C39.1171 14.2841 38.8 14.011 38.5702 13.6763V16.9H36.2119V7.33461H38.5702V8.37835ZM41.9351 11.0075C41.9351 10.4438 41.7696 10.0034 41.4386 9.68633C41.1168 9.36043 40.7168 9.19749 40.2388 9.19749C39.77 9.19749 39.37 9.36043 39.039 9.68633C38.7172 10.0122 38.5563 10.457 38.5563 11.0207C38.5563 11.5844 38.7172 12.0292 39.039 12.3551C39.37 12.681 39.77 12.844 40.2388 12.844C40.7078 12.844 41.1077 12.681 41.4386 12.3551C41.7696 12.0204 41.9351 11.5712 41.9351 11.0075Z" fill="white"/>
<path d="M52.826 10.9018C52.826 11.1132 52.8123 11.3334 52.7847 11.5624H47.4475C47.4844 12.0204 47.636 12.3727 47.9026 12.6194C48.1785 12.8572 48.514 12.9761 48.9095 12.9761C49.4979 12.9761 49.9069 12.7383 50.1369 12.2626H52.6468C52.5181 12.7471 52.2837 13.1831 51.9434 13.5706C51.6125 13.9582 51.1941 14.262 50.6884 14.4822C50.1828 14.7024 49.6173 14.8125 48.9923 14.8125C48.2383 14.8125 47.5672 14.6584 46.9787 14.3501C46.3903 14.0418 45.9306 13.6014 45.5995 13.0289C45.2687 12.4564 45.1031 11.787 45.1031 11.0207C45.1031 10.2544 45.264 9.58503 45.5858 9.01251C45.9167 8.44001 46.3764 7.99961 46.9648 7.69133C47.5533 7.38305 48.2291 7.22891 48.9923 7.22891C49.7369 7.22891 50.3989 7.37865 50.978 7.67813C51.5574 7.97759 52.0078 8.40477 52.3296 8.95967C52.6607 9.51457 52.826 10.162 52.826 10.9018ZM50.4128 10.3073C50.4128 9.91973 50.2748 9.61145 49.9989 9.38245C49.7231 9.15345 49.3783 9.03895 48.9647 9.03895C48.5692 9.03895 48.2337 9.14905 47.9578 9.36923C47.6912 9.58943 47.5257 9.90211 47.4614 10.3073H50.4128Z" fill="white"/>
<path d="M58.7592 7.25536C59.6602 7.25536 60.3773 7.5372 60.9105 8.10092C61.453 8.6558 61.7242 9.4221 61.7242 10.3998V14.7068H59.3797V10.7036C59.3797 10.2104 59.2463 9.82726 58.9797 9.55422C58.7131 9.28116 58.3547 9.14464 57.9042 9.14464C57.4535 9.14464 57.0951 9.28116 56.8285 9.55422C56.5618 9.82726 56.4285 10.2104 56.4285 10.7036V14.7068H54.0703V7.33462H56.4285V8.3123C56.6676 7.9864 56.9894 7.73098 57.3939 7.54602C57.7983 7.35224 58.2534 7.25536 58.7592 7.25536Z" fill="white"/>
<path d="M66.8659 14.7993C66.1581 14.7993 65.5236 14.6892 64.9627 14.469C64.4019 14.2488 63.9515 13.9229 63.6113 13.4913C63.2803 13.0598 63.1055 12.5401 63.0872 11.9323H65.5971C65.6339 12.2759 65.758 12.5401 65.9696 12.7251C66.1811 12.9012 66.4567 12.9893 66.7971 12.9893C67.1464 12.9893 67.4221 12.9144 67.6245 12.7647C67.8267 12.6062 67.928 12.3904 67.928 12.1173C67.928 11.8883 67.8452 11.6989 67.6797 11.5492C67.5234 11.3995 67.3257 11.2762 67.0866 11.1793C66.8567 11.0824 66.5258 10.9723 66.0937 10.849C65.4684 10.664 64.9581 10.479 64.5628 10.2941C64.1675 10.1091 63.8274 9.83606 63.5423 9.47494C63.2573 9.11382 63.1147 8.6426 63.1147 8.06128C63.1147 7.1981 63.4412 6.5243 64.094 6.03986C64.7467 5.54662 65.5971 5.3 66.6452 5.3C67.7119 5.3 68.5713 5.54662 69.2242 6.03986C69.8771 6.5243 70.2264 7.2025 70.2724 8.07448H67.721C67.7026 7.77502 67.5876 7.5416 67.3762 7.37426C67.1648 7.1981 66.8935 7.11002 66.5625 7.11002C66.2775 7.11002 66.0477 7.18488 65.873 7.33462C65.6984 7.47554 65.611 7.68254 65.611 7.95558C65.611 8.25504 65.758 8.48846 66.0524 8.6558C66.3466 8.82316 66.8061 9.00372 67.4314 9.1975C68.0566 9.40008 68.5623 9.59384 68.9483 9.77882C69.3438 9.96378 69.6839 10.2324 69.9689 10.5847C70.254 10.9371 70.3964 11.3907 70.3964 11.9456C70.3964 12.474 70.254 12.9541 69.9689 13.3856C69.6932 13.8172 69.2886 14.1607 68.7554 14.4162C68.2222 14.6716 67.5923 14.7993 66.8659 14.7993Z" fill="white"/>
<path d="M79.102 10.9018C79.102 11.1132 79.0881 11.3334 79.0605 11.5624H73.7233C73.7601 12.0204 73.9118 12.3727 74.1784 12.6194C74.4543 12.8572 74.79 12.9761 75.1853 12.9761C75.7737 12.9761 76.1829 12.7383 76.4126 12.2626H78.9225C78.7939 12.7471 78.5595 13.1831 78.2193 13.5706C77.8883 13.9582 77.47 14.262 76.9642 14.4822C76.4585 14.7024 75.8931 14.8125 75.268 14.8125C74.5141 14.8125 73.8429 14.6584 73.2545 14.3501C72.6661 14.0418 72.2063 13.6014 71.8753 13.0289C71.5444 12.4564 71.3789 11.787 71.3789 11.0207C71.3789 10.2544 71.5398 9.58503 71.8616 9.01251C72.1925 8.44001 72.6522 7.99961 73.2406 7.69133C73.829 7.38305 74.5048 7.22891 75.268 7.22891C76.0127 7.22891 76.6746 7.37865 77.254 7.67813C77.8331 7.97759 78.2836 8.40477 78.6054 8.95967C78.9364 9.51457 79.102 10.162 79.102 10.9018ZM76.6885 10.3073C76.6885 9.91973 76.5506 9.61145 76.2747 9.38245C75.9988 9.15345 75.654 9.03895 75.2404 9.03895C74.8451 9.03895 74.5094 9.14905 74.2336 9.36923C73.9669 9.58943 73.8014 9.90211 73.7372 10.3073H76.6885Z" fill="white"/>
<path d="M79.877 11.0075C79.877 10.25 80.0242 9.58503 80.3184 9.01251C80.6217 8.44001 81.0309 7.99961 81.5458 7.69133C82.0607 7.38305 82.6352 7.22891 83.2698 7.22891C83.812 7.22891 84.2857 7.33461 84.6902 7.54601C85.1039 7.75739 85.421 8.03485 85.6417 8.37835V7.33461H88V14.7068H85.6417V13.6631C85.412 14.0066 85.0902 14.2841 84.6763 14.4954C84.2718 14.7068 83.7984 14.8125 83.2559 14.8125C82.6306 14.8125 82.0607 14.6584 81.5458 14.3501C81.0309 14.033 80.6217 13.5882 80.3184 13.0157C80.0242 12.4344 79.877 11.765 79.877 11.0075ZM85.6417 11.0207C85.6417 10.457 85.4762 10.0122 85.1453 9.68633C84.8235 9.36043 84.428 9.19749 83.9592 9.19749C83.4903 9.19749 83.0903 9.36043 82.7595 9.68633C82.4377 10.0034 82.2768 10.4438 82.2768 11.0075C82.2768 11.5712 82.4377 12.0204 82.7595 12.3551C83.0903 12.681 83.4903 12.844 83.9592 12.844C84.428 12.844 84.8235 12.681 85.1453 12.3551C85.4762 12.0292 85.6417 11.5844 85.6417 11.0207Z" fill="white"/>
</svg>
