<svg width="18" height="16" viewBox="0 0 18 16" fill="none" xmlns="http://www.w3.org/2000/svg">
<path d="M12.3827 5.05928L5.62375 9.02654C5.49929 9.09878 5.35842 9.13678 5.21507 9.13678C5.07171 9.13678 4.93085 9.09878 4.80638 9.02654L2.64194 7.76053C2.51922 7.68671 2.41766 7.58156 2.34734 7.45552C2.27703 7.32949 2.24041 7.18697 2.24112 7.04211V4.51008C2.24121 4.36445 2.27902 4.2214 2.35075 4.0953C2.42249 3.9692 2.52562 3.86448 2.6498 3.79167L4.80796 2.52565C4.93242 2.45341 5.07329 2.41541 5.21664 2.41541C5.35999 2.41541 5.50086 2.45341 5.62532 2.52565L7.78348 3.79167C7.90766 3.86448 8.01079 3.9692 8.08253 4.0953C8.15426 4.2214 8.19207 4.36445 8.19216 4.51008V5.72501C8.1922 5.76126 8.2016 5.79688 8.2194 5.8283C8.23721 5.85972 8.26281 5.88585 8.29366 5.9041C8.3245 5.92235 8.35951 5.93207 8.39521 5.9323C8.4309 5.93253 8.46603 5.92326 8.4971 5.90541L9.62098 5.24606C9.68288 5.20958 9.73422 5.15716 9.76982 5.0941C9.80542 5.03103 9.82402 4.95955 9.82375 4.88686V3.55219C9.82366 3.40675 9.78602 3.26387 9.71458 3.13781C9.64315 3.01175 9.54042 2.90692 9.41664 2.83378L5.61746 0.611469C5.49326 0.53845 5.35229 0.5 5.20878 0.5C5.06527 0.5 4.9243 0.53845 4.8001 0.611469L1.00878 2.83378C0.884602 2.90659 0.781469 3.01131 0.709735 3.13741C0.638 3.26351 0.60019 3.40656 0.600098 3.55219V8C0.60019 8.14564 0.638 8.28868 0.709735 8.41479C0.781469 8.54089 0.884602 8.6456 1.00878 8.71842L4.8001 10.9407C4.9243 11.0137 5.06527 11.0522 5.20878 11.0522C5.35229 11.0522 5.49326 11.0137 5.61746 10.9407L12.3764 6.97346C12.5009 6.90122 12.6418 6.86322 12.7851 6.86322C12.9285 6.86322 13.0693 6.90122 13.1938 6.97346L15.352 8.23947C15.4761 8.31229 15.5793 8.41701 15.651 8.54311C15.7227 8.66921 15.7606 8.81226 15.7607 8.95789V11.4899C15.7606 11.6356 15.7227 11.7786 15.651 11.9047C15.5793 12.0308 15.4761 12.1355 15.352 12.2083L13.2001 13.4743C13.0756 13.5466 12.9348 13.5846 12.7914 13.5846C12.6481 13.5846 12.5072 13.5466 12.3827 13.4743L10.2246 12.2083C10.1004 12.1355 9.99726 12.0308 9.92553 11.9047C9.85379 11.7786 9.81598 11.6356 9.81589 11.4899V10.2734C9.81605 10.2371 9.80676 10.2014 9.78895 10.1699C9.77114 10.1384 9.74546 10.1123 9.7145 10.0941C9.68355 10.076 9.64841 10.0665 9.61267 10.0665C9.57692 10.0666 9.54183 10.0763 9.51095 10.0946L8.38707 10.7523C8.32528 10.7889 8.27402 10.8414 8.23844 10.9044C8.20286 10.9675 8.18419 11.0389 8.1843 11.1115V12.4478C8.18439 12.5933 8.22203 12.7361 8.29347 12.8622C8.3649 12.9883 8.46764 13.0931 8.59141 13.1662L12.3827 15.3885C12.5069 15.4616 12.6479 15.5 12.7914 15.5C12.9349 15.5 13.0759 15.4616 13.2001 15.3885L16.9914 13.1662C17.1156 13.0934 17.2187 12.9887 17.2905 12.8626C17.3622 12.7365 17.4 12.5934 17.4001 12.4478V8C17.4 7.85436 17.3622 7.71132 17.2905 7.58522C17.2187 7.45912 17.1156 7.3544 16.9914 7.28158L13.2001 5.05928C13.0759 4.98626 12.9349 4.94781 12.7914 4.94781C12.6479 4.94781 12.5069 4.98626 12.3827 5.05928Z" fill="white"/>
</svg>
